<svg xmlns="http://www.w3.org/2000/svg" viewBox="0 0 640 480" role="img">
  <defs><linearGradient id="bg" x2="1" y2="1"><stop stop-color="#f8e9dc"/><stop offset="1" stop-color="#e6b7a0"/></linearGradient><linearGradient id="juice" x2="0" y2="1"><stop stop-color="#d88b44"/><stop offset="1" stop-color="#9a4d37"/></linearGradient></defs>
  <rect width="640" height="480" rx="32" fill="url(#bg)"/><circle cx="117" cy="322" r="49" fill="#b83642"/><path d="M117 273q-19-32-42-27 17 28 42 34m0-7q23-32 45-24-18 27-45 31" fill="#47864a"/><path d="M485 376q-32-78 4-147 36 69 7 147z" fill="#e98e34"/><path d="M490 287v86" stroke="#f9bd64" stroke-width="6"/>
  <rect x="255" y="124" width="130" height="282" rx="34" fill="#fff" opacity=".75"/><path d="M270 195h100v172a24 24 0 0 1-24 24h-52a24 24 0 0 1-24-24z" fill="url(#juice)"/><rect x="286" y="87" width="68" height="49" rx="10" fill="#43854b"/><path d="M278 250h84" stroke="#fff" stroke-width="7" opacity=".7"/><text x="320" y="446" text-anchor="middle" fill="#78483b" font-family="Arial,sans-serif" font-weight="700" font-size="27">ABC IMMUNITY</text>
</svg>
